<?xml version="1.0" encoding="utf-8"?>
<!-- Generator: Adobe Illustrator 27.5.0, SVG Export Plug-In . SVG Version: 6.00 Build 0)  -->
<svg version="1.1" xmlns="http://www.w3.org/2000/svg" xmlns:xlink="http://www.w3.org/1999/xlink" x="0px" y="0px"
	 viewBox="0 0 500 500" style="enable-background:new 0 0 500 500;" xml:space="preserve">
<g id="Background_complete">
	<g>
		<path style="fill:#EBEBEB;" d="M109.414,171.393H96.338c-1.342,0-2.43-1.088-2.43-2.43v-12.913c0-2.381-0.557-4.612-2.202-5.649
			c-1.427-0.899-3.309,0.089-3.57,1.755c-0.603,3.838-2.394,11.618-7.393,16.456c-1.553,1.503-2.731,4.594-2.731,6.755v23.083
			c0,2.259,3.972,4.09,8.8,4.09h19.796c3.832,0,6.939-3.107,6.939-6.939v-2.991c0-2.2,0.675-4.31,1.688-6.263
			c0.733-1.414,1.118-2.985,1.118-4.583v-3.431C116.353,174.5,113.246,171.393,109.414,171.393z"/>
		<rect x="66.955" y="172.233" style="fill:#EBEBEB;" width="8.448" height="28.59"/>
	</g>
	<g>
		<path style="fill:#F5F5F5;" d="M382.073,254.867l7.305-20.069c2.721,0.991,5.213,2.524,7.323,4.508
			c2.11,1.983,3.795,4.376,4.952,7.031L382.073,254.867z"/>
		<path style="fill:#E0E0E0;" d="M382.073,254.867l6.225,20.43c-2.018,0.615-4.115,0.927-6.225,0.927
			c-11.716,0-21.357-9.641-21.357-21.357c0-11.716,9.641-21.357,21.357-21.357c2.457,0,4.896,0.424,7.21,1.254L382.073,254.867z"/>
		<path style="fill:#EBEBEB;" d="M382.073,254.867l19.62-8.437c1.146,2.665,1.737,5.536,1.737,8.437
			c0,9.341-6.128,17.648-15.052,20.405L382.073,254.867z"/>
	</g>
	<path style="fill:#F0F0F0;" d="M156.266,269.416c-2.45,3.731-4.098,7.83-4.976,12.058l-6.733,0.634l0,13.039l6.734,0.635
		c0.877,4.226,2.525,8.325,4.975,12.057l-4.3,5.194l9.22,9.22l5.194-4.3c3.732,2.45,7.83,4.098,12.057,4.976l0.634,6.734
		l13.039-0.001l0.635-6.732c4.227-0.878,8.326-2.526,12.057-4.976l5.195,4.3l9.22-9.22l-4.3-5.195
		c2.45-3.732,4.098-7.83,4.975-12.057l6.732-0.634l0.001-13.039l-6.733-0.634c-0.878-4.227-2.526-8.325-4.976-12.056l4.301-5.195
		l-9.22-9.22l-5.194,4.3c-3.732-2.45-7.831-4.099-12.057-4.976l-0.635-6.733l-13.039,0.001l-0.634,6.733
		c-4.227,0.878-8.325,2.525-12.057,4.976l-5.194-4.301l-9.221,9.221L156.266,269.416z M197.811,276.408
		c6.748,6.748,6.748,17.69,0,24.439c-6.749,6.749-17.691,6.748-24.439,0c-6.749-6.749-6.749-17.69,0-24.439
		C180.121,269.659,191.062,269.659,197.811,276.408z"/>
	<path style="fill:#F5F5F5;" d="M138.008,91.87c-3.976,6.055-6.649,12.705-8.074,19.564l-10.925,1.028l-0.001,21.157l10.927,1.03
		c1.422,6.857,4.097,13.508,8.073,19.564l-6.978,8.428l14.961,14.961l8.428-6.978c6.055,3.975,12.706,6.649,19.564,8.073
		l1.029,10.926l21.157-0.001l1.03-10.924c6.859-1.425,13.509-4.099,19.564-8.074l8.429,6.978l14.961-14.961l-6.978-8.428
		c3.975-6.055,6.649-12.705,8.073-19.564l10.924-1.03l0.002-21.157l-10.925-1.03c-1.424-6.858-4.099-13.508-8.074-19.563
		l6.978-8.429l-14.961-14.96l-8.428,6.977c-6.056-3.976-12.706-6.651-19.564-8.075l-1.03-10.925l-21.157,0.001l-1.029,10.925
		c-6.858,1.424-13.508,4.098-19.563,8.073l-8.428-6.978l-14.961,14.961L138.008,91.87z M205.419,103.214
		c10.949,10.949,10.95,28.704,0,39.654c-10.951,10.951-28.706,10.95-39.655,0c-10.951-10.951-10.951-28.704,0-39.655
		C176.715,92.264,194.468,92.263,205.419,103.214z"/>
	<path style="fill:#F0F0F0;" d="M289.701,161.884c-2.933,4.467-4.906,9.374-5.957,14.435l-8.061,0.759l0,15.611l8.062,0.76
		c1.049,5.06,3.023,9.967,5.956,14.435l-5.148,6.219l11.039,11.039l6.219-5.148c4.468,2.933,9.375,4.906,14.435,5.957l0.759,8.062
		l15.611-0.001l0.76-8.06c5.061-1.051,9.967-3.024,14.435-5.957l6.219,5.148l11.039-11.039l-5.148-6.219
		c2.933-4.468,4.906-9.374,5.956-14.435l8.06-0.76l0.001-15.611l-8.061-0.76c-1.051-5.06-3.024-9.967-5.958-14.434l5.149-6.219
		l-11.039-11.038l-6.219,5.148c-4.468-2.933-9.375-4.907-14.435-5.958l-0.76-8.061l-15.611,0.001l-0.759,8.061
		c-5.06,1.051-9.967,3.023-14.434,5.957l-6.219-5.149l-11.039,11.039L289.701,161.884z M339.439,170.254
		c8.079,8.079,8.079,21.179,0,29.258c-8.08,8.08-21.18,8.079-29.259,0c-8.08-8.08-8.08-21.179,0-29.259
		C318.26,162.175,331.359,162.174,339.439,170.254z"/>
	<path style="fill:#E0E0E0;" d="M100.234,243.394c-1.488,2.266-2.488,4.755-3.022,7.323l-4.089,0.385l0,7.919l4.09,0.385
		c0.532,2.567,1.534,5.056,3.021,7.322l-2.612,3.155l5.599,5.6l3.155-2.612c2.266,1.488,4.755,2.489,7.322,3.022l0.385,4.089
		l7.919,0l0.385-4.089c2.567-0.533,5.056-1.534,7.323-3.022l3.155,2.612l5.6-5.6l-2.611-3.155c1.488-2.266,2.489-4.755,3.021-7.322
		l4.089-0.385l0.001-7.919l-4.089-0.385c-0.533-2.567-1.534-5.056-3.022-7.322l2.612-3.155l-5.6-5.599l-3.154,2.611
		c-2.267-1.488-4.756-2.489-7.322-3.022l-0.385-4.089l-7.919,0l-0.385,4.089c-2.567,0.533-5.056,1.534-7.322,3.022l-3.155-2.612
		l-5.6,5.6L100.234,243.394z M125.464,247.64c4.098,4.098,4.098,10.743,0,14.842c-4.099,4.099-10.744,4.098-14.842,0
		c-4.099-4.099-4.099-10.743,0-14.842C114.721,243.542,121.365,243.542,125.464,247.64z"/>
	<path style="fill:#E0E0E0;" d="M382.195,124.778c-1.488,2.266-2.489,4.755-3.022,7.323l-4.089,0.385l0,7.919l4.09,0.385
		c0.532,2.567,1.534,5.056,3.022,7.322l-2.612,3.155l5.599,5.6l3.155-2.612c2.266,1.488,4.755,2.489,7.322,3.022l0.385,4.089
		l7.919-0.001l0.385-4.089c2.567-0.533,5.056-1.534,7.322-3.022l3.155,2.612l5.6-5.6l-2.612-3.155
		c1.488-2.266,2.489-4.755,3.021-7.322l4.089-0.385l0.001-7.919l-4.089-0.385c-0.533-2.567-1.534-5.056-3.022-7.322l2.612-3.155
		l-5.6-5.599l-3.154,2.612c-2.267-1.488-4.756-2.489-7.322-3.022l-0.385-4.089l-7.919,0l-0.385,4.089
		c-2.567,0.533-5.056,1.534-7.322,3.022l-3.155-2.612l-5.6,5.6L382.195,124.778z M407.426,129.024
		c4.098,4.098,4.098,10.743,0,14.842c-4.099,4.099-10.744,4.098-14.842,0c-4.099-4.098-4.099-10.743,0-14.842
		C396.682,124.925,403.327,124.925,407.426,129.024z"/>
	<path style="fill:#F0F0F0;" d="M392.676,195.145c-0.913,1.39-1.527,2.918-1.854,4.493l-2.509,0.236l0,4.859l2.509,0.236
		c0.327,1.575,0.941,3.102,1.854,4.493l-1.603,1.936l3.436,3.436l1.936-1.602c1.391,0.913,2.918,1.527,4.493,1.854l0.236,2.509
		l4.859,0l0.236-2.509c1.575-0.327,3.103-0.941,4.493-1.854l1.936,1.602l3.436-3.436l-1.602-1.936
		c0.913-1.391,1.527-2.918,1.854-4.493l2.509-0.236l0-4.859l-2.509-0.236c-0.327-1.575-0.941-3.102-1.854-4.493l1.602-1.936
		l-3.436-3.436l-1.936,1.603c-1.391-0.913-2.918-1.527-4.493-1.854l-0.236-2.509l-4.859,0l-0.236,2.509
		c-1.575,0.327-3.102,0.941-4.493,1.854l-1.936-1.603l-3.436,3.436L392.676,195.145z M408.158,197.75
		c2.514,2.515,2.515,6.592,0,9.107c-2.515,2.515-6.593,2.515-9.107,0c-2.515-2.515-2.515-6.592,0-9.107
		C401.565,195.235,405.642,195.235,408.158,197.75z"/>
	<g>
		<rect x="72.425" y="317.811" style="fill:#E0E0E0;" width="15.426" height="40.583"/>
		<rect x="91.654" y="330.71" style="fill:#E0E0E0;" width="15.426" height="27.684"/>
		<rect x="110.33" y="344.552" style="fill:#E0E0E0;" width="15.426" height="13.842"/>
	</g>
	<g>
		<g>
			<g>
				<g>
					<path style="fill:#E0E0E0;" d="M443.92,330.198H263.174c-3.232,0-5.862-2.63-5.862-5.862V61.062
						c0-3.232,2.63-5.862,5.862-5.862H443.92c3.232,0,5.862,2.629,5.862,5.862v263.273
						C449.783,327.568,447.153,330.198,443.92,330.198z M263.174,55.45c-3.095,0-5.612,2.518-5.612,5.612v263.273
						c0,3.095,2.518,5.612,5.612,5.612H443.92c3.095,0,5.612-2.518,5.612-5.612V61.062c0-3.094-2.518-5.612-5.612-5.612H263.174z"/>
				</g>
			</g>
			<g>
				<g>
					<path style="fill:#E0E0E0;" d="M235.493,330.198H54.746c-3.232,0-5.862-2.63-5.862-5.862V61.062
						c0-3.232,2.629-5.862,5.862-5.862h180.747c3.232,0,5.862,2.629,5.862,5.862v263.273
						C241.355,327.568,238.725,330.198,235.493,330.198z M54.746,55.45c-3.094,0-5.612,2.518-5.612,5.612v263.273
						c0,3.095,2.518,5.612,5.612,5.612h180.747c3.095,0,5.612-2.518,5.612-5.612V61.062c0-3.094-2.518-5.612-5.612-5.612H54.746z"/>
				</g>
			</g>
		</g>
		<g>
			<g>
				<rect x="0" y="391.267" style="fill:#E0E0E0;" width="500" height="0.25"/>
			</g>
		</g>
	</g>
	<g>
		<rect x="65.545" y="411.721" style="fill:#E0E0E0;" width="16.06" height="0.25"/>
		<rect x="184.225" y="409.011" style="fill:#E0E0E0;" width="53.53" height="0.25"/>
		<rect x="82.605" y="421.011" style="fill:#E0E0E0;" width="36.25" height="0.25"/>
		<rect x="392.225" y="408.881" style="fill:#E0E0E0;" width="43.19" height="0.25"/>
		<rect x="444.325" y="408.881" style="fill:#E0E0E0;" width="6.33" height="0.25"/>
		<rect x="330.085" y="415.111" style="fill:#E0E0E0;" width="53.89" height="0.25"/>
	</g>
</g>
<g id="Background_simple" style="display:none;">
	<g style="display:inline;">
		<path style="fill:#407BFF;" d="M173.432,81.362c-22.688,4.229-44.566,13.233-63.969,27.356
			c-22.869,16.646-46.236,42.577-39.334,76.495c12.741,62.618,73.865,63.759,61.661,105.862
			c-13.824,47.691-4.553,103.633,57.477,119.19c117.817,29.547,260.241-143.341,220.239-238.341
			C384.602,112.78,293.899,58.907,173.432,81.362z"/>
		<path style="opacity:0.9;fill:#FFFFFF;" d="M173.432,81.362c-22.688,4.229-44.566,13.233-63.969,27.356
			c-22.869,16.646-46.236,42.577-39.334,76.495c12.741,62.618,73.865,63.759,61.661,105.862
			c-13.824,47.691-4.553,103.633,57.477,119.19c117.817,29.547,260.241-143.341,220.239-238.341
			C384.602,112.78,293.899,58.907,173.432,81.362z"/>
	</g>
</g>
<g id="Shadow">
	<g>
		<g>
			<path style="fill:#F5F5F5;" d="M454.426,465.325c0,2.636-91.525,4.774-204.426,4.774s-204.426-2.137-204.426-4.774
				c0-2.637,91.525-4.774,204.426-4.774S454.426,462.689,454.426,465.325z"/>
		</g>
	</g>
</g>
<g id="Plant">
	<g>
		<g>
			<path style="fill:#407BFF;" d="M376.659,434.135c-0.786-1.321-2.538-2.945-3.766-3.87c-1.228-0.925-2.911-1.386-4.334-0.804
				c-1.816,0.744-2.653,2.971-2.4,4.917c0.254,1.946,1.181,4.406,2.288,6.026c4.723,6.916,9.095,13.245,16.385,18.391
				C384.832,450.205,381.019,441.461,376.659,434.135z"/>
		</g>
		<g>
			<path style="fill:#407BFF;" d="M400.707,435.325c-1.631-0.893-4.664,0.373-6.153,1.488c-2.951,2.211-4.748,4.527-6.547,7.745
				c-2.284,4.087-2.548,9.826-2.838,13.471c5.773-4.686,11.653-9.491,15.606-15.789c0.69-1.099,1.33-2.28,1.454-3.571
				C402.353,437.378,401.845,435.949,400.707,435.325z"/>
		</g>
		<path style="fill:#263238;" d="M385.694,462.361c-0.115,0-0.219-0.08-0.244-0.197c-1.369-6.329-3.795-12.329-7.211-17.835
			c-0.072-0.117-0.036-0.272,0.081-0.345c0.117-0.072,0.271-0.036,0.345,0.081c3.445,5.555,5.893,11.608,7.273,17.993
			c0.029,0.135-0.057,0.268-0.191,0.297C385.729,462.359,385.712,462.361,385.694,462.361z"/>
		<path style="fill:#263238;" d="M384.935,458.835c-0.028,0-0.057-0.005-0.085-0.015c-0.13-0.048-0.197-0.19-0.15-0.32
			c1.546-4.263,3.801-8.189,6.702-11.666c0.09-0.106,0.247-0.12,0.352-0.032c0.107,0.089,0.12,0.246,0.032,0.353
			c-2.865,3.434-5.091,7.308-6.616,11.516C385.133,458.772,385.037,458.835,384.935,458.835z"/>
	</g>
</g>
<g id="Arrow">
	<polygon style="fill:#407BFF;" points="425.269,305.238 403.048,303.555 411.573,313.556 379.151,339.275 324.847,339.151 
		241.105,384.756 90.957,384.756 34.651,462.808 78.282,462.808 109.212,420.435 241.105,420.435 324.762,376.125 391.998,376.279 
		435.574,341.712 443.779,351.336 445.634,329.129 447.49,306.922 	"/>
	<path style="opacity:0.1;enable-background:new    ;" d="M409.9,315.004c0,0,20.581,29.641,22.211,29.211
		c1.63-0.43,3.665-2.266,3.665-2.266l-24.408-28.633L409.9,315.004z"/>
</g>
<g id="Speech_Bubble">
	<g>
		<g>
			<g>
				<g>
					<g>
						
							<ellipse transform="matrix(0.7651 -0.6439 0.6439 0.7651 22.1846 222.245)" style="fill:#407BFF;" cx="315.702" cy="80.716" rx="20.414" ry="20.415"/>
					</g>
					<g>
						<polygon style="fill:#407BFF;" points="305.463,93.007 300.224,93.426 299.311,99.993 305.642,98.429 						"/>
					</g>
				</g>
			</g>
			<path style="fill:#407BFF;" d="M338.385,77.153c-0.127,0-0.235-0.095-0.249-0.224c-0.682-6.492-4.895-12.573-10.733-15.492
				c-0.124-0.062-0.174-0.212-0.112-0.335c0.062-0.124,0.214-0.173,0.335-0.112c5.988,2.993,10.309,9.229,11.009,15.888
				c0.014,0.137-0.086,0.26-0.223,0.274C338.402,77.153,338.394,77.153,338.385,77.153z"/>
			<path style="fill:#407BFF;" d="M338.514,83.206c-0.019,0-0.038-0.002-0.058-0.007c-0.135-0.032-0.218-0.166-0.186-0.301
				c0.226-0.947,0.253-1.955,0.079-2.912c-0.024-0.136,0.065-0.266,0.201-0.29c0.142-0.023,0.266,0.066,0.291,0.202
				c0.185,1.025,0.156,2.103-0.085,3.117C338.729,83.129,338.627,83.206,338.514,83.206z"/>
		</g>
		<path style="fill:#FFFFFF;" d="M308.1,75.736c-0.635,0.967-1.062,2.03-1.29,3.126l-1.745,0.164l0,3.38l1.746,0.164
			c0.227,1.096,0.655,2.158,1.29,3.125l-1.115,1.347l2.39,2.39l1.346-1.115c0.967,0.635,2.03,1.062,3.126,1.29l0.164,1.746l3.38,0
			l0.164-1.745c1.096-0.228,2.158-0.655,3.126-1.29l1.346,1.115l2.39-2.39l-1.115-1.347c0.635-0.967,1.062-2.03,1.29-3.126
			l1.745-0.164l0-3.38l-1.745-0.165c-0.227-1.096-0.655-2.158-1.29-3.125l1.115-1.347l-2.39-2.39l-1.346,1.115
			c-0.967-0.635-2.03-1.063-3.125-1.29l-0.165-1.746l-3.38,0l-0.164,1.745c-1.096,0.228-2.158,0.655-3.125,1.29l-1.347-1.115
			l-2.39,2.39L308.1,75.736z M318.938,77.481c1.787,1.787,1.787,4.684,0,6.471c-1.787,1.787-4.685,1.787-6.471,0
			c-1.787-1.787-1.787-4.684,0-6.471C314.254,75.694,317.151,75.694,318.938,77.481z"/>
	</g>
</g>
<g id="Character">
	<g>
		<g>
			<path style="fill:#263238;" d="M180.141,202.44c0,0,5.361-8.04,12.086-6.338c6.725,1.701,7.13,12.64,7.13,12.64l-3.727-1.296
				c0,0,1.215-7.94-3.565-9.075c-4.781-1.134-9.278,5.267-9.278,5.267l-2.147-1.134"/>
			<polygon style="fill:#407BFF;" points="145.12,240.572 147.163,235.273 161.942,196.945 218.88,214.137 207.048,260.167 			"/>
			<path style="fill:#E9B376;" d="M193.146,184.903c-0.862,0.287-5.747,6.149-6.724,7.816c-0.977,1.667-1.092,2.758-0.345,3.333
				c0.747,0.575,1.609,1.149,1.839,1.149c0.23,0-0.805,1.724,0.517,2.586c1.322,0.862,2.011,0.69,2.011,0.69
				s-0.345,2.529,1.379,3.218c1.724,0.69,2.471-0.115,2.758,0c0.287,0.115,1.839-2.816,1.839-2.816l2.011,3.098
				c0,0,0.919-0.915,1.839-2.639c0.919-1.724,0.862-6.609,0.862-6.609l-0.92-4.368l1.552-6.268c0,0-7.586-1.031-7.643-0.858
				C194.065,183.409,193.146,184.903,193.146,184.903z"/>
			<path style="opacity:0.2;enable-background:new    ;" d="M161.942,196.945c0,0,3.448,24.525,20.057,26.293
				c16.609,1.768,36.88-9.101,36.88-9.101"/>
			<polygon style="opacity:0.2;enable-background:new    ;" points="208.846,253.172 147.499,234.402 145.12,240.572 
				207.048,260.167 			"/>
		</g>
		<g>
			<path style="fill:#E9B376;" d="M343.064,191.081c0,0,0.202,0.682-0.604,2.039c-0.805,1.357-2.572,0.397-2.562,0.627
				c0.01,0.23-0.528,1.115-1.07,1.886c-0.542,0.771-1.638,0.702-3.345-0.203c-1.707-0.905-7.771-5.537-8.094-6.386
				c0,0-1.532-0.855-1.707-0.905s0.533-7.673,0.533-7.673l6.328,1.284l4.325-1.104c0,0,4.878-0.265,6.64,0.581
				c0.308,0.148,0.591,0.297,0.849,0.442c0.954,0.537,1.01,1.892,0.118,2.527l-1.262,0.898c0,0,1.239,0.663,2.108,1.187
				c0.566,0.341,0.906,0.98,0.823,1.635c-0.017,0.135-0.046,0.266-0.09,0.384c-0.296,0.777-1.143,0.538-1.143,0.538
				s0.18,1.486-1.36,1.997C342.981,191.021,343.064,191.081,343.064,191.081z"/>
			<path style="opacity:0.1;fill:#263238;" d="M339.815,187.658c-0.266,0-0.543-0.062-0.807-0.187
				c-0.295-0.139-0.519-0.417-0.666-0.828c-0.249-0.691-0.225-1.398-0.085-2.148c-0.428,0.457-0.911,0.861-1.438,1.199
				c-0.502,0.322-0.934,0.504-1.358,0.573c-0.568,0.092-1.118-0.034-1.506-0.348c-0.107-0.087-0.124-0.244-0.037-0.352
				c0.088-0.107,0.246-0.124,0.352-0.037c0.279,0.225,0.682,0.313,1.111,0.244c0.354-0.058,0.725-0.217,1.169-0.501
				c0.772-0.495,1.447-1.144,1.974-1.896v-0.001c0.038-0.142,0.127-0.472,0.435-0.565c0.095-0.028,0.205,0.003,0.269,0.085
				c0.064,0.081,0.071,0.193,0.018,0.281c-0.082,0.14-0.17,0.277-0.262,0.412c-0.283,1.064-0.482,2.019-0.17,2.883
				c0.069,0.194,0.196,0.445,0.408,0.545c0.317,0.15,0.781,0.225,1.135-0.012c0.56-0.375,1.117-0.823,1.764-1.34
				c0.428-0.343,0.888-0.711,1.402-1.102c0.111-0.082,0.268-0.062,0.35,0.048c0.083,0.11,0.062,0.267-0.048,0.351
				c-0.511,0.388-0.968,0.753-1.393,1.094c-0.654,0.525-1.221,0.978-1.798,1.365C340.4,187.579,340.115,187.658,339.815,187.658z"/>
			<path style="opacity:0.1;fill:#263238;" d="M336.218,195.06c-0.313,0-0.571-0.214-0.745-0.385
				c-0.419-0.409-0.793-0.864-1.111-1.352c-0.393-0.603-0.508-1.107-0.351-1.542c0.145-0.397,0.531-0.709,1.009-0.813
				c0.415-0.089,0.836-0.026,1.195,0.047c0.4,0.083,0.792,0.192,1.174,0.328c-0.11-0.154-0.211-0.316-0.3-0.484
				c-0.273-0.517-0.418-1.28,0.077-1.725c0.436-0.392,1.075-0.265,1.519-0.134c1.473,0.43,2.904,1.022,4.254,1.761
				c0.121,0.066,0.165,0.218,0.1,0.339c-0.067,0.122-0.22,0.165-0.34,0.099c-1.317-0.721-2.715-1.3-4.154-1.72
				c-0.329-0.096-0.794-0.199-1.044,0.026c-0.263,0.237-0.174,0.733,0.03,1.12c0.27,0.512,0.666,0.955,1.14,1.286
				c0.175,0.095,0.348,0.196,0.517,0.303c0.112,0.071,0.15,0.217,0.086,0.333c-0.065,0.117-0.212,0.162-0.327,0.104
				c-0.186-0.09-0.366-0.195-0.536-0.312c-0.721-0.387-1.49-0.667-2.296-0.834c-0.323-0.066-0.667-0.117-0.986-0.048
				c-0.308,0.067-0.562,0.261-0.646,0.495c-0.1,0.277-0.003,0.636,0.298,1.098c0.299,0.458,0.649,0.884,1.043,1.268
				c0.184,0.179,0.324,0.258,0.429,0.239c0.141-0.022,0.266,0.066,0.291,0.201c0.024,0.136-0.065,0.266-0.201,0.291
				C336.299,195.056,336.258,195.06,336.218,195.06z"/>
			<path style="opacity:0.1;fill:#263238;" d="M338.15,189.391c-0.073,0-0.146-0.032-0.196-0.095
				c-0.255-0.321-0.412-0.724-0.441-1.135c-0.023-0.33,0.038-0.631,0.177-0.872c0.175-0.301,0.48-0.504,0.798-0.529
				c0.137-0.012,0.257,0.091,0.269,0.229c0.011,0.138-0.092,0.258-0.229,0.269c-0.153,0.013-0.312,0.123-0.404,0.282
				c-0.112,0.194-0.122,0.426-0.111,0.586c0.023,0.311,0.142,0.616,0.336,0.86c0.085,0.108,0.067,0.265-0.041,0.351
				C338.26,189.373,338.205,189.391,338.15,189.391z"/>
			<path style="opacity:0.1;fill:#263238;" d="M344.84,189.036c-0.046,0-0.093-0.013-0.135-0.04c-1.343-0.858-2.202-1.3-3.68-1.895
				c-0.128-0.052-0.19-0.197-0.139-0.325c0.053-0.129,0.196-0.19,0.326-0.139c1.51,0.607,2.389,1.06,3.762,1.938
				c0.116,0.074,0.15,0.229,0.076,0.345C345.003,188.995,344.922,189.036,344.84,189.036z"/>
		</g>
		<g>
			<g>
				<g>
					<g>
						<g>
							<g>
								<polygon style="fill:#E9B376;" points="191.118,319.776 181.654,340.434 190.312,345.167 203.186,324.314 								"/>
							</g>
						</g>
					</g>
				</g>
				<g>
					<g>
						<g>
							<g>
								<g>
									<g>
										<path style="fill:#263238;" d="M183.571,339.415c0.572,1.689,3.16,2.885,4.761,2.615l0.917-1.612
											c0.948-1.265,1.794-1.647,3.171-0.659c0.675,0.484,1.111,1.855,0.999,3.494c-0.201,2.939,0.541,4.572,0.541,4.572
											s4.823,6.853,6.799,8.861c1.179,1.198,2.714,2.873,2.908,4.934c0.055,0.589,0.039,1.242-0.062,1.969
											c-0.083,0.597-0.694,1.716-0.707,1.741l-16.72-9.061c0,0-1.167-1.919-1.906-2.285c-1.315-0.652-2.501,0.159-2.501,0.159
											l-6.105-3.25c0,0,0.391-1.002,0.963-2.458l-0.001-0.001c0.258-0.656,0.552-1.404,0.861-2.195
											c1.33-3.392,3.782-6.964,4.165-7.92C182.326,336.642,183.571,339.415,183.571,339.415z"/>
										<g>
											<g>
												<g>
													<g>
														<path style="fill:#407BFF;" d="M196.642,351.366c-0.039-0.108-0.151-0.178-0.267-0.17
															c-0.534,0.034-1.057,0.205-1.52,0.523c-0.244,0.168,0.001,0.585,0.247,0.416c0.411-0.283,0.871-0.435,1.338-0.466
															c0.156-0.01,0.256-0.152,0.204-0.298C196.643,351.369,196.643,351.367,196.642,351.366z"/>
													</g>
												</g>
											</g>
										</g>
										<g>
											<g>
												<g>
													<g>
														<path style="fill:#407BFF;" d="M195.728,349.972c-0.039-0.109-0.151-0.178-0.267-0.17
															c-0.534,0.035-1.057,0.206-1.52,0.523c-0.244,0.168,0.001,0.585,0.247,0.416c0.411-0.282,0.871-0.435,1.338-0.466
															c0.156-0.01,0.256-0.152,0.204-0.298C195.729,349.975,195.728,349.974,195.728,349.972z"/>
													</g>
												</g>
											</g>
										</g>
										<g>
											<g>
												<g>
													<g>
														<path style="fill:#407BFF;" d="M194.748,348.604c-0.039-0.108-0.151-0.178-0.267-0.17
															c-0.534,0.034-1.057,0.206-1.52,0.523c-0.244,0.167,0.001,0.585,0.247,0.416c0.411-0.282,0.871-0.435,1.338-0.466
															c0.156-0.01,0.256-0.153,0.204-0.298C194.749,348.607,194.749,348.606,194.748,348.604z"/>
													</g>
												</g>
											</g>
										</g>
									</g>
								</g>
							</g>
						</g>
					</g>
				</g>
				<path style="opacity:0.2;fill:#FFFFFF;enable-background:new    ;" d="M203.66,362.687c-0.012,0.304-0.036,0.618-0.082,0.952
					c-0.083,0.597-0.694,1.716-0.707,1.741l-16.72-9.061c0,0-1.167-1.918-1.906-2.285c-1.315-0.652-2.501,0.159-2.501,0.159
					l-6.105-3.25c0,0,0.391-1.002,0.963-2.458l-0.001-0.001c0.045-0.115,0.096-0.246,0.144-0.366L203.66,362.687z"/>
				<path style="fill:#407BFF;" d="M194.071,349.047l0.188-0.433c0.264-0.608,0.538-1.237,0.916-1.809
					c0.438-0.661,0.954-1.141,1.533-1.427c0.433-0.213,0.831-0.229,1.125-0.047c0.385,0.241,0.464,0.734,0.409,1.116
					c-0.092,0.643-0.492,1.259-1.096,1.688c-0.584,0.417-2.146,0.735-2.611,0.823L194.071,349.047z M197.368,345.705
					c-0.169,0-0.35,0.078-0.439,0.122c-0.5,0.247-0.949,0.669-1.337,1.254c-0.267,0.402-0.482,0.846-0.681,1.292
					c0.771-0.168,1.615-0.408,1.945-0.642c0.493-0.352,0.818-0.845,0.891-1.353c0.031-0.216,0.002-0.509-0.179-0.622
					C197.508,345.72,197.439,345.705,197.368,345.705z"/>
				<path style="fill:#407BFF;" d="M194.623,349.165l-0.364-0.296c-0.365-0.301-1.581-1.332-1.892-1.979
					c-0.322-0.668-0.376-1.4-0.146-2.008c0.135-0.361,0.442-0.756,0.895-0.782c0.337-0.002,0.682,0.183,0.963,0.583
					c0.37,0.529,0.591,1.198,0.656,1.988c0.057,0.681-0.007,1.363-0.068,2.023L194.623,349.165z M193.16,344.6
					c-0.005,0-0.011,0-0.016,0.001c-0.213,0.012-0.379,0.254-0.456,0.458c-0.181,0.48-0.134,1.069,0.129,1.615
					c0.176,0.365,0.8,0.982,1.395,1.5c0.041-0.487,0.066-0.98,0.025-1.461c-0.058-0.7-0.249-1.287-0.568-1.742
					C193.571,344.831,193.376,344.6,193.16,344.6z"/>
			</g>
			<g>
				<g>
					<g>
						<g>
							<g>
								<polygon style="fill:#E9B376;" points="283.06,271.175 273.596,291.833 282.254,296.566 295.128,275.712 								"/>
							</g>
						</g>
					</g>
				</g>
				<g>
					<g>
						<g>
							<g>
								<g>
									<g>
										<path style="fill:#263238;" d="M275.513,290.814c0.572,1.689,3.16,2.885,4.761,2.615l0.917-1.612
											c0.948-1.264,1.794-1.647,3.171-0.659c0.676,0.484,1.111,1.855,0.999,3.494c-0.201,2.939,0.541,4.572,0.541,4.572
											s4.823,6.853,6.799,8.861c1.179,1.198,2.714,2.873,2.908,4.934c0.055,0.589,0.039,1.242-0.062,1.969
											c-0.083,0.597-0.694,1.716-0.707,1.741l-16.72-9.061c0,0-1.167-1.919-1.906-2.285c-1.315-0.652-2.501,0.159-2.501,0.159
											l-6.105-3.25c0,0,0.391-1.002,0.963-2.458l-0.001-0.001c0.258-0.656,0.552-1.404,0.861-2.195
											c1.33-3.392,3.782-6.964,4.165-7.92C274.268,288.041,275.513,290.814,275.513,290.814z"/>
										<g>
											<g>
												<g>
													<g>
														<path style="fill:#407BFF;" d="M288.584,302.764c-0.039-0.108-0.151-0.178-0.267-0.17
															c-0.534,0.034-1.057,0.206-1.52,0.523c-0.244,0.167,0.001,0.585,0.247,0.416c0.411-0.282,0.871-0.435,1.338-0.466
															c0.156-0.01,0.256-0.152,0.204-0.298C288.585,302.768,288.585,302.766,288.584,302.764z"/>
													</g>
												</g>
											</g>
										</g>
										<g>
											<g>
												<g>
													<g>
														<path style="fill:#407BFF;" d="M287.67,301.371c-0.039-0.108-0.151-0.178-0.267-0.17
															c-0.534,0.035-1.057,0.206-1.52,0.523c-0.244,0.168,0.001,0.585,0.247,0.416c0.411-0.282,0.871-0.435,1.338-0.466
															c0.156-0.01,0.256-0.152,0.204-0.298C287.671,301.374,287.671,301.372,287.67,301.371z"/>
													</g>
												</g>
											</g>
										</g>
										<g>
											<g>
												<g>
													<g>
														<path style="fill:#407BFF;" d="M286.69,300.003c-0.039-0.109-0.151-0.178-0.267-0.17
															c-0.533,0.034-1.057,0.206-1.52,0.523c-0.244,0.168,0.001,0.585,0.247,0.416c0.411-0.282,0.871-0.435,1.338-0.466
															c0.156-0.01,0.256-0.153,0.204-0.298C286.691,300.006,286.691,300.004,286.69,300.003z"/>
													</g>
												</g>
											</g>
										</g>
									</g>
								</g>
							</g>
						</g>
					</g>
				</g>
				<path style="opacity:0.2;fill:#FFFFFF;enable-background:new    ;" d="M295.602,314.086c-0.012,0.304-0.036,0.618-0.082,0.952
					c-0.083,0.597-0.694,1.716-0.707,1.741l-16.72-9.061c0,0-1.167-1.919-1.906-2.285c-1.315-0.652-2.501,0.159-2.501,0.159
					l-6.105-3.25c0,0,0.391-1.002,0.963-2.458l-0.001-0.001c0.045-0.115,0.097-0.246,0.144-0.366L295.602,314.086z"/>
				<path style="fill:#407BFF;" d="M286.014,300.445l0.188-0.433c0.264-0.607,0.536-1.234,0.915-1.809
					c0.44-0.661,0.955-1.142,1.534-1.427c0.432-0.212,0.831-0.229,1.124-0.046c0.385,0.239,0.463,0.733,0.408,1.115
					c-0.092,0.643-0.491,1.259-1.095,1.689c-0.567,0.404-2.015,0.71-2.611,0.822L286.014,300.445z M289.31,297.104
					c-0.168,0-0.35,0.078-0.439,0.122c-0.498,0.245-0.948,0.667-1.338,1.254c-0.267,0.403-0.481,0.847-0.68,1.291
					c0.771-0.168,1.615-0.407,1.943-0.642c0.493-0.353,0.818-0.846,0.892-1.355c0.03-0.215,0.002-0.507-0.179-0.62
					C289.451,297.119,289.382,297.104,289.31,297.104z"/>
				<path style="fill:#407BFF;" d="M286.564,300.566l-0.364-0.299c-0.468-0.386-1.59-1.351-1.892-1.979
					c-0.322-0.668-0.375-1.4-0.147-2.008c0.136-0.361,0.442-0.756,0.897-0.781c0.369-0.018,0.688,0.189,0.962,0.584
					c0.37,0.527,0.591,1.196,0.656,1.987c0.057,0.684-0.007,1.366-0.068,2.026L286.564,300.566z M285.103,295.999
					c-0.006,0-0.012,0-0.017,0.001c-0.215,0.012-0.38,0.253-0.456,0.457c-0.182,0.482-0.135,1.069,0.129,1.615
					c0.175,0.364,0.799,0.981,1.393,1.5c0.04-0.486,0.065-0.978,0.025-1.46c-0.059-0.701-0.249-1.287-0.568-1.742
					C285.532,296.257,285.328,295.999,285.103,295.999z"/>
			</g>
			<path style="fill:#263238;" d="M228.873,205.249c0,0-2.31,10.808,1.062,20.281l-13.282,47.981c0,0-34.891,60.601-33.842,60.863
				c1.049,0.262,17.974,10.38,17.974,10.38s33.859-52.536,38.768-59.528c4.908-6.992,25.109-60.51,25.109-60.51L228.873,205.249z"/>
			<path style="opacity:0.3;enable-background:new    ;" d="M242.018,209.671c-0.647,1.941-5.368,7.259-6.083,9.484
				c-0.216,0.647-5.375-2.183-5.591-1.508c4.159,5.825,19.796,13.661,30.349,18.512c1.659-4.085,2.094-5.883,3.442-9.389
				c2.076-5.258,4.349-9.387,5.522-12.421C260.219,212.327,249.81,210.736,242.018,209.671z"/>
			<path style="fill:#263238;" d="M324.293,219.462c-13.095-6.69-48.932-15.919-48.932-15.919l1.497-10.678l-42.118-8.305
				c-2.354,5.67-4.126,10.874-5.027,14.765c-5.876,25.363,19.962,28.434,25.129,28.769l46.802,8.338l-24.718,45.2l17.314,6.672
				c0,0,22.406-33.771,33.128-51.872C331.553,229.363,327.85,221.279,324.293,219.462z"/>
			<polygon style="opacity:0.3;fill:#FFFFFF;" points="267.393,195.117 249.394,191.639 250.095,188.78 268.027,192.259 			"/>
			<polygon style="opacity:0.3;fill:#FFFFFF;" points="269.39,192.528 276.698,194.001 276.289,196.919 268.809,195.387 			"/>
			<polygon style="opacity:0.3;fill:#FFFFFF;" points="236.343,186.111 248.72,188.511 247.992,191.355 235.656,188.969 			"/>
			<g style="opacity:0.3;">
				<polygon style="fill:#FFFFFF;" points="234.388,188.678 233.213,188.382 234.283,185.672 235.103,185.82 				"/>
			</g>
			<path style="opacity:0.3;enable-background:new    ;" d="M275.388,203.435l-21.18-6.142c0.431,0.125,13.83,2.944,21.431,4.35
				L275.388,203.435z"/>
			<path style="opacity:0.3;enable-background:new    ;" d="M301.77,235.917l11.394-3.639c0,0-7.871,7.264-13.947,8.308
				L301.77,235.917z"/>
		</g>
		<g>
			<path style="fill:#407BFF;" d="M234.178,123.041c-0.808,0.042-27.761,19.084-31.544,23.67
				c-3.783,4.586-11.349,38.516-11.349,38.516l10.119,2.527l12.322-32.495l22.954-11.725c0,0,5.517-10.521,5.674-10.994
				C242.511,132.067,234.178,123.041,234.178,123.041z"/>
			<path style="opacity:0.7;fill:#FFFFFF;" d="M234.178,123.041c-0.808,0.042-27.761,19.084-31.544,23.67
				c-3.783,4.586-11.349,38.516-11.349,38.516l10.119,2.527l12.322-32.495l22.954-11.725c0,0,5.517-10.521,5.674-10.994
				C242.511,132.067,234.178,123.041,234.178,123.041z"/>
			<path style="fill:#407BFF;" d="M332.109,180.992l-31.63-21.854c0,0-10.479-29.883-13.726-34.598
				c-4.223-6.133-12.266-6.535-12.266-6.535l4.883,25.529c0,0,2.833,10.194,5.545,17.527c2.782,7.522,3.867,11.611,10.715,15.681
				c5.94,3.531,31.31,12.964,31.31,12.964C326.5,189.56,332.109,180.992,332.109,180.992z"/>
			<path style="opacity:0.7;fill:#FFFFFF;" d="M332.109,180.992l-31.63-21.854c0,0-10.479-29.883-13.726-34.598
				c-4.223-6.133-12.266-6.535-12.266-6.535l4.883,25.529c0,0,2.833,10.194,5.545,17.527c2.782,7.522,3.867,11.611,10.715,15.681
				c5.94,3.531,31.31,12.964,31.31,12.964C326.5,189.56,332.109,180.992,332.109,180.992z"/>
			<path style="fill:#407BFF;" d="M232.454,184.094c0,0-2.165-0.143-1.389-2.091s3.112-3.744,3.112-3.744l1.757-12.59l-1.757-42.628
				l7.885-1.951l8.67-2.002l3.701-3.338l10.024-0.471l4.913,2.725h5.156c-0.045,0.072,10.149,23.136,7.605,41.545
				s-4.358,30.046-4.79,31.222c-0.873,2.379-2.768,1.627-2.768,1.627L232.454,184.094z"/>
			<path style="opacity:0.7;fill:#FFFFFF;" d="M232.454,184.094c0,0-2.165-0.143-1.389-2.091s3.112-3.744,3.112-3.744l1.757-12.59
				l-0.878-21.306l-0.879-21.321l7.885-1.951l8.67-2.002l3.701-3.338l9.731-0.471l5.205,2.725h5.156
				c-0.045,0.072,10.149,23.136,7.605,41.545s-4.358,30.046-4.79,31.222c-0.873,2.379-2.768,1.627-2.768,1.627L232.454,184.094z"/>
			<path style="opacity:0.1;fill:#263238;" d="M259.593,188.763c-0.008,0-0.017-0.001-0.025-0.001
				c-0.138-0.014-0.237-0.137-0.224-0.274c2.115-20.47,2.537-41.268,1.252-61.814c-0.008-0.138,0.097-0.256,0.234-0.265
				c0.134-0.019,0.257,0.097,0.265,0.234c1.286,20.574,0.864,41.399-1.253,61.897C259.828,188.667,259.72,188.763,259.593,188.763z"
				/>
			<path style="opacity:0.2;enable-background:new    ;" d="M237.564,150.53l0.273,6.635c0,0,17.418-12.857,20.873-17.151
				c4.463-5.546,4.796-8.599,4.796-8.599L237.564,150.53z"/>
			<path style="fill:#407BFF;" d="M259.343,128.52l2.06,3.228c0,0-29.604,21.867-57.226,23.709l-1.684,9.416l9.511,1.74
				c0,0,41.979-16.171,51.856-34.663l2.949-4.418l-3.144-2.741l-0.975,0.634L259.343,128.52z"/>
			<path style="opacity:0.2;enable-background:new    ;" d="M282.53,153.886c0,0,0.92-13.029,1.102-19.668
				c0,0,0.938,5.072,1.248,10.266c0.266,4.467-1.081,13.592-1.081,13.592L282.53,153.886z"/>
			<path style="opacity:0.2;enable-background:new    ;" d="M251.198,119.58c0.401,0.753,6.817,8.917,6.817,8.917l5.161-3.603
				c0.037-0.047-4.488,4.931-4.514,4.978l-1.336,0.124L251.198,119.58z"/>
			<path style="opacity:0.2;enable-background:new    ;" d="M263.664,124.792l3.858,1.684c0,0,1.685-3.901,1.773-4.965
				c0.089-1.064,0.018-2.86,0.018-2.86h0.514c0,0,0.44,2.952-0.325,5.136c-0.81,2.313-1.777,4.545-1.777,4.545L263.664,124.792z"/>
			<path style="opacity:0.2;enable-background:new    ;" d="M300.483,159.128c0.288,2.079-0.99,4.891-2.089,6.679
				c1.302-0.484,2.787-1.074,3.414-2.314c0.627-1.24,1.101-1.331,1.037-2.719L300.483,159.128z"/>
		</g>
		<g>
			<path style="fill:#263238;" d="M251.202,98.499c0,0-8.823-6.855-8.554-9.277c0.269-2.422,1.669-1.736,1.669-1.736
				s-3.189-5.692-0.323-6.809c2.866-1.117,3.109-0.148,3.109-0.148s-1.346-4.697,0.902-6.217c1.709-1.171,2.543,0.982,2.543,0.982
				s3.136-5.333,7.148-5.421c1.988,0.07,3.015,1.307,2.798,2.845c-0.009,0.067-0.021,0.133-0.035,0.199
				c0,0,7.946-3.856,11.795-1.797c3.849,2.059-0.954,4.686-0.954,4.686s7.849-1.145,9.523,1.963c1.33,2.468-2.108,4.309-2.108,4.309
				s1.261,0.372,2.364,1.289c2.1,1.747,1.005,5.269-1.719,5.479c-0.021,0.002-0.042,0.003-0.063,0.005
				c-0.418,0.029-1.167,0.151-1.483-0.125c0,0,1.471,2.799-1.409,3.835c-2.88,1.036-4.405-2.288-4.405-2.288L251.202,98.499z"/>
			<g>
				<g>
					<path style="fill:#E9B376;" d="M254.646,116.94c0,0,0.307-4.13-3.027-14.002c0-0.011,0.516-0.267,0.516-0.278
						c-0.46-1.381-0.942-2.654-1.391-3.757c-0.011-0.032-0.011-0.043-0.011-0.043l14.043,7.857
						c-0.182,3.211,1.234,9.339,2.032,11.918l-3.303,6.152L254.646,116.94z"/>
					<path style="opacity:0.2;" d="M265.207,111.202l-7.948-1.432c0.821,2.417,3.113,5.224,8.601,5.222
						C265.859,114.992,265.194,112.277,265.207,111.202z"/>
				</g>
				<path style="fill:#263238;" d="M273.2,82.677c1.747,3.094,2.621,10.027-2.481,8.796C265.617,90.242,270.197,77.359,273.2,82.677
					z"/>
				<path style="fill:#E9B376;" d="M250.338,92.222c1.3,8.63,1.858,13.523,6.639,17.549c7.191,6.055,17.326,1.253,18.634-7.617
					c1.177-7.984-1.146-20.756-9.954-23.375C256.98,76.197,249.038,83.592,250.338,92.222z"/>
				<path style="fill:#263238;" d="M262.979,93.63c0.078,0.888,0.613,1.562,1.194,1.505c0.581-0.057,0.988-0.823,0.909-1.711
					c-0.078-0.888-0.613-1.561-1.193-1.504C263.308,91.976,262.901,92.742,262.979,93.63z"/>
				<path style="fill:#263238;" d="M271.703,93.034c0.078,0.888,0.613,1.562,1.193,1.505c0.581-0.057,0.988-0.823,0.91-1.711
					c-0.078-0.888-0.613-1.561-1.193-1.504C272.032,91.38,271.624,92.146,271.703,93.034z"/>
				<path style="fill:#D58745;" d="M268.826,92.791c0,0,3.201,4.164,4.26,5.881c-1.137,1.225-3.312,0.899-3.312,0.899
					L268.826,92.791z"/>
				<path style="fill:#263238;" d="M260.629,88.942c0.142,0.031,0.297-0.013,0.402-0.13c1.253-1.386,2.775-1.174,2.791-1.172
					c0.228,0.034,0.442-0.122,0.479-0.349c0.036-0.227-0.12-0.439-0.346-0.474c-0.08-0.012-1.988-0.279-3.542,1.441
					c-0.155,0.172-0.142,0.435,0.028,0.588C260.496,88.896,260.561,88.928,260.629,88.942z"/>
				<path style="fill:#263238;" d="M275.25,88.863c0.074-0.027,0.142-0.076,0.193-0.145c0.138-0.186,0.101-0.448-0.083-0.586
					c-1.841-1.38-3.641-0.715-3.725-0.696c-0.215,0.081-0.327,0.322-0.248,0.538c0.078,0.216,0.315,0.326,0.53,0.248
					c0.074-0.031,1.467-0.525,2.945,0.583C274.976,88.893,275.123,88.909,275.25,88.863z"/>
			</g>
			<g>
				<g>
					<path style="fill:#263238;" d="M267.483,105.487C267.402,105.471,267.512,105.496,267.483,105.487L267.483,105.487z"/>
					<path style="fill:#263238;" d="M268.7,102.066c-1.416-0.384-4.032-1.213-5.336-2.473c0,0-0.209,0.392-0.315,0.976
						c-0.097,0.503-0.135,1.14,0.058,1.791c0.358,1.188,1.463,2.443,4.321,3.111c0.04,0.01,0.047,0.013,0.055,0.016
						c0.011,0.002,0.008,0.001,0.029,0.006c0,0,1.539,0.327,2.159-3.183C269.671,102.309,269.291,102.233,268.7,102.066z"/>
				</g>
				<path style="fill:#FFFFFF;" d="M268.7,102.066l-0.5,0.962c-2.69-0.637-4.499-1.446-5.151-2.459
					c0.106-0.584,0.315-0.976,0.315-0.976C264.668,100.853,267.284,101.682,268.7,102.066z"/>
				<path style="fill:#DC5753;" d="M267.429,105.471c-2.858-0.669-3.963-1.924-4.321-3.111c0.965,0.266,2.099,0.693,3.026,1.372
					C266.845,104.247,267.221,104.876,267.429,105.471z"/>
			</g>
			<path style="fill:#263238;" d="M253.217,98.829c0.734-0.439,1.507-0.92,1.884-1.688c0.351-0.715,0.296-1.555,0.193-2.345
				c-0.107-0.819-0.258-1.632-0.453-2.435c0.789,0.357,1.698-0.3,2.09-1.072c0.586-1.154,0.49-2.524,0.345-3.81
				c0.995,0.17,2.097-0.169,2.714-0.967c0.616-0.799,0.626-2.052-0.079-2.773c3.217,0.299,6.493-0.041,9.581-0.993
				c-0.199,0.407,0.071,0.883,0.362,1.231c1.178,1.41,2.892,2.363,4.711,2.618c0.267,0.038,0.597,0.032,0.735-0.2
				c0.074-0.123,0.067-0.277,0.053-0.42c-0.178-1.756-1.256-3.329-2.635-4.432c-1.378-1.103-3.04-1.789-4.709-2.36
				c-2.771-0.948-5.658-1.623-8.586-1.701c-2.928-0.077-5.906,0.463-8.496,1.831c-0.566,0.299-1.126,0.649-1.51,1.162
				c-0.364,0.487-0.542,1.085-0.696,1.673c-0.934,3.579-1.192,7.334-0.757,11.007"/>
			<g>
				<path style="fill:#E9B376;" d="M247.55,99.758c0.891,2.173,2.706,3.721,4.503,4.424c2.703,1.057,4.37-1.301,3.883-4.013
					c-0.438-2.441-2.373-5.933-5.213-5.831C247.925,94.438,246.532,97.273,247.55,99.758z"/>
				<path style="opacity:0.2;" d="M253.512,99.683c-0.116,0-0.221-0.082-0.245-0.2c-0.142-0.698-0.466-1.35-0.936-1.885
					c-0.305-0.345-0.799-0.776-1.428-0.874c-0.555-0.089-1.129,0.158-1.363,0.581c-0.066,0.121-0.218,0.164-0.34,0.098
					c-0.121-0.067-0.164-0.219-0.098-0.34c0.337-0.609,1.11-0.949,1.876-0.832c0.777,0.12,1.368,0.63,1.727,1.037
					c0.528,0.602,0.892,1.333,1.052,2.116c0.027,0.135-0.059,0.267-0.195,0.295C253.545,99.681,253.528,99.683,253.512,99.683z"/>
			</g>
		</g>
	</g>
</g>
<g id="Hand">
	<g>
		<path style="fill:#DB8C7E;" d="M380.611,307.898l-36.595,55.499c-13.157,17.045-24.131,31.962-44.034,37.785l-70.444,26.565
			c-8.395,3.166-14.525,10.489-16.164,19.311l2.576,13.904h-75.549c0,0,0.995-54.686,5.619-71.174
			c4.331-15.445,15.118-28.97,37.273-33.45c18.421-3.725,88.605-16.925,102.215-17.365c5.792-0.187,7.218,3.835,6.956,4.286
			l3.205-0.357c0,0,37.75-33.312,46.018-41.374c6.394-6.235,17.064-2.609,17.064-2.609s11.393-10.514,19.53-5.35
			C378.281,293.567,385.774,298.917,380.611,307.898z"/>
		<path style="opacity:0.3;enable-background:new    ;" d="M292.465,343.258c4.436,12.682-6.556,20.518-19.354,26.444
			c-12.798,5.926-44.882,16.526-44.882,16.526l-0.956,5.653l5.396-4.344c0,0,26.385-9.352,44.044-17.559
			c11.198-5.204,15.194-9.443,17.059-13.755c1.554-3.592,1.731-7.632,0.704-11.409l-0.52-1.913L292.465,343.258z"/>
		<path style="opacity:0.3;enable-background:new    ;" d="M358.752,298.917c0,0,7.148,6.526,1.38,13.489
			c-4.865,5.873-44.55,56.823-44.55,56.823l5.061-4.15c0,0,41.032-48.357,43.6-52.591
			C368.075,306.169,362.067,298.851,358.752,298.917z"/>
	</g>
</g>
</svg>
